<svg xmlns="http://www.w3.org/2000/svg" viewBox="0 0 56 56" version="1.1">
  <defs>
    <clipPath id="clip1">
      <path d="M 0 0 L 56 0 L 56 56 L 0 56 Z M 0 0 " />
    </clipPath>
    <clipPath id="clip2">
      <path d="M 29.199219 34.191406 C 27.894531 35.171875 26.589844 36.472656 24.894531 35.367188 C 22.941406 33.867188 20.921875 32.367188 18.964844 30.867188 C 18.640625 30.671875 18.378906 30.410156 18.054688 30.214844 C 17.921875 30.347656 17.726562 30.542969 17.597656 30.671875 C 13.554688 34.976562 9.582031 39.210938 5.539062 43.515625 C 4.886719 44.230469 4.234375 44.949219 3.519531 45.667969 L 39.691406 55.378906 C 42.167969 56.03125 44.773438 54.53125 45.425781 52.054688 L 47.511719 44.230469 C 45.101562 41.625 42.6875 39.082031 40.210938 36.472656 C 38.386719 34.585938 36.628906 32.628906 34.800781 30.738281 C 34.671875 30.609375 34.476562 30.410156 34.28125 30.214844 C 32.71875 31.519531 30.957031 32.824219 29.199219 34.191406 M 0.128906 39.863281 C 0.0664062 40.191406 0 40.582031 0 40.90625 C 0.128906 40.777344 0.261719 40.582031 0.457031 40.449219 C 3.128906 37.582031 5.867188 34.714844 8.539062 31.847656 C 10.167969 30.085938 11.796875 28.390625 13.425781 26.632812 C 10.753906 24.609375 8.082031 22.523438 5.34375 20.503906 Z M 54.875 14.636719 C 53.050781 16.070312 51.160156 17.4375 49.335938 18.875 C 47.054688 20.632812 44.773438 22.328125 42.492188 24.089844 C 42.882812 24.480469 43.273438 24.871094 43.601562 25.261719 C 45.949219 27.804688 48.292969 30.28125 50.703125 32.824219 L 55.265625 15.746094 C 55.398438 15.222656 55.460938 14.765625 55.398438 14.246094 C 55.203125 14.375 55.070312 14.503906 54.875 14.636719 M 9.90625 3.554688 L 8.210938 9.8125 C 12.382812 13.007812 16.554688 16.136719 20.726562 19.328125 C 22.746094 20.894531 24.765625 22.394531 26.785156 23.957031 C 27.371094 24.414062 27.960938 24.871094 28.609375 25.328125 C 28.808594 25.457031 29.328125 25.71875 29.132812 25.847656 C 36.238281 20.4375 43.40625 15.027344 50.507812 9.550781 L 15.707031 0.230469 C 15.316406 0.0976562 14.859375 0.0976562 14.46875 0.0976562 C 12.316406 0.0976562 10.429688 1.46875 9.90625 3.554688 " />
    </clipPath>
    <linearGradient id="linear0" gradientUnits="userSpaceOnUse" x1="-262.7826" y1="700.974" x2="-261.7293" y2="700.974" gradientTransform="matrix(29.675678,51.412178,51.399855,-29.682793,-28219.717375,34317.891751)">
      <stop offset="0" style="stop-color:rgb(5.490196%,49.803922%,75.686275%);stop-opacity:1;" />
      <stop offset="0.1672" style="stop-color:rgb(5.490196%,49.803922%,75.686275%);stop-opacity:1;" />
      <stop offset="0.3194" style="stop-color:rgb(5.098039%,45.490196%,71.372549%);stop-opacity:1;" />
      <stop offset="0.8374" style="stop-color:rgb(4.313725%,32.54902%,57.647059%);stop-opacity:1;" />
      <stop offset="1" style="stop-color:rgb(4.313725%,32.54902%,57.647059%);stop-opacity:1;" />
    </linearGradient>
  </defs>
  <g id="surface1">
    <g clip-path="url(#clip1)" clip-rule="nonzero">
      <g clip-path="url(#clip2)" clip-rule="nonzero">
        <path style=" stroke:none;fill-rule:nonzero;fill:url(#linear0);" d="M 41.582031 -23.890625 L 79.640625 42.015625 L 13.882812 80.019531 L -24.179688 14.050781 Z M 41.582031 -23.890625 " />
      </g>
    </g>
  </g>
</svg>